<?xml version="1.0" encoding="UTF-8"?>
<!DOCTYPE svg PUBLIC "-//W3C//DTD SVG 1.1//EN" "http://www.w3.org/Graphics/SVG/1.1/DTD/svg11.dtd">
<svg xmlns="http://www.w3.org/2000/svg" version="1.1" width="224px" height="224px" style="shape-rendering:geometricPrecision; text-rendering:geometricPrecision; image-rendering:optimizeQuality; fill-rule:evenodd; clip-rule:evenodd" xmlns:xlink="http://www.w3.org/1999/xlink">
<g><path style="opacity:1" fill="#fdfefe" d="M -0.5,-0.5 C 74.1667,-0.5 148.833,-0.5 223.5,-0.5C 223.5,74.1667 223.5,148.833 223.5,223.5C 148.833,223.5 74.1667,223.5 -0.5,223.5C -0.5,148.833 -0.5,74.1667 -0.5,-0.5 Z"/></g>
<g><path style="opacity:1" fill="#146fa2" d="M 105.5,18.5 C 145.11,16.3714 171.943,33.7047 186,70.5C 188.205,81.3789 189.039,92.3789 188.5,103.5C 195.622,104.864 202.622,106.697 209.5,109C 187.95,129.719 165.95,149.886 143.5,169.5C 134.757,141.605 126.424,113.605 118.5,85.5C 125.838,87.1687 133.171,88.8354 140.5,90.5C 142.686,76.0315 139.853,62.6982 132,50.5C 119.789,37.2143 105.289,34.0476 88.5,41C 82.3225,43.9193 76.6559,47.5859 71.5,52C 66.9287,57.2288 62.4287,62.3955 58,67.5C 54.1779,64.3469 50.3446,61.1802 46.5,58C 60.1241,35.8515 79.7908,22.6848 105.5,18.5 Z"/></g>
<g><path style="opacity:1" fill="#060809" d="M 40.5,64.5 C 65.7284,85.7067 90.8951,107.04 116,128.5C 116.432,129.6 115.932,130.267 114.5,130.5C 106.722,132.476 99.3883,135.31 92.5,139C 99.0722,160.851 113.072,175.517 134.5,183C 151.265,186.361 164.098,180.861 173,166.5C 176.198,160.905 178.198,154.905 179,148.5C 183.967,144.534 188.634,140.201 193,135.5C 194.922,174.25 176.755,197.084 138.5,204C 116.468,206.987 96.4677,201.987 78.5,189C 65.2267,179.063 54.0601,167.229 45,153.5C 38.8589,155.603 32.6922,157.603 26.5,159.5C 26.1667,158.667 25.8333,157.833 25.5,157C 30.2377,126.075 35.2377,95.242 40.5,64.5 Z"/></g>
</svg>
